<svg width="239" height="143" viewBox="0 0 239 143" fill="none" xmlns="http://www.w3.org/2000/svg">
<path d="M238.59 60.0391C238.59 39.7773 222.168 23.3555 201.91 23.3555C194.438 23.3555 187.496 25.5938 181.699 29.4258C174.648 12.1641 157.691 0 137.891 0C113.066 0 92.7109 19.1211 90.7422 43.4414C86.5586 41.0352 81.7109 39.6523 76.5391 39.6523C60.7813 39.6523 48.0039 52.4258 48.0039 68.1875C48.0039 81.1914 56.707 92.1562 68.6016 95.5938C69.625 96.3008 70.8555 96.7227 72.1836 96.7227H204.652C205.324 96.7227 205.969 96.6133 206.578 96.4141C224.633 94.1172 238.59 78.7148 238.59 60.0391Z" fill="#EFF1F5"/>
<path d="M192.387 112.25L108.984 109.75L192.387 107.25V112.25Z" fill="#189ACA"/>
<path d="M105.48 112.25L76.3945 109.75L105.48 107.25V112.25Z" fill="#189ACA"/>
<path d="M205.355 128.723L93.2148 126.223L205.355 123.723V128.723Z" fill="#189ACA"/>
<path d="M89.0078 128.723L56.418 126.223L89.0078 123.723V128.723Z" fill="#189ACA"/>
<path d="M177.496 141.688L87.7852 139.188L177.496 136.688V141.688Z" fill="#189ACA"/>
<path d="M82 142.387L44.5039 139.887L82 137.387V142.387Z" fill="#189ACA"/>
<path d="M46.6055 128.723L32.9414 126.223L46.6055 123.723V128.723Z" fill="#189ACA"/>
<path d="M71.6641 112.25L49.2344 109.75L71.6641 107.25V112.25Z" fill="#189ACA"/>
<path d="M215.168 141.688L181.875 139.188L215.168 136.688V141.688Z" fill="#189ACA"/>
<path d="M37.4961 142.387L0 139.887L37.4961 137.387V142.387Z" fill="#189ACA"/>
</svg>
