<svg width="227" height="233" viewBox="0 0 227 233" fill="none" xmlns="http://www.w3.org/2000/svg">
<path d="M86.4297 0C82.9609 0 80.1211 2.83984 80.1211 6.30859V26.2812C80.1211 29.75 82.9609 32.5898 86.4297 32.5898C89.8984 32.5898 92.7383 29.75 92.7383 26.2812V6.30859C92.7383 2.83984 89.8984 0 86.4297 0Z" fill="#FECD04"/>
<path d="M24.4453 26.0195C21.9883 28.4727 21.9883 32.4883 24.4453 34.9414L38.5664 49.0664C41.0195 51.5195 45.0352 51.5195 47.4883 49.0664C49.9414 46.6133 49.9414 42.5977 47.4883 40.1445L33.3633 26.0195C30.9102 23.5664 26.8984 23.5664 24.4453 26.0195Z" fill="#FECD04"/>
<path d="M146.055 23.7734C143.602 21.3203 139.586 21.3203 137.133 23.7734L123.008 37.8984C120.555 40.3516 120.555 44.3672 123.008 46.8203C125.461 49.2734 129.477 49.2734 131.93 46.8203L146.055 32.6953C148.508 30.2422 148.508 26.2305 146.055 23.7734Z" fill="#FECD04"/>
<path d="M32.5898 84.8945C32.5898 81.4258 29.7539 78.5859 26.2812 78.5859H6.30859C2.83984 78.5859 0 81.4258 0 84.8945C0 88.3633 2.83984 91.1992 6.30859 91.1992H26.2812C29.7539 91.1992 32.5898 88.3633 32.5898 84.8945Z" fill="#FECD04"/>
<path d="M64.5977 107.77C67.3359 107.77 70.0625 108.078 72.7148 108.688C75.4102 98.8398 80.8164 89.8867 88.4414 82.8203C98.6719 73.3398 111.992 68.1172 125.949 68.1172C126.977 68.1172 128 68.1523 129.02 68.207C122.352 51.2031 105.797 39.1602 86.4297 39.1602C61.1719 39.1602 40.6953 59.6367 40.6953 84.8945C40.6953 94.7109 43.793 103.805 49.0586 111.258C53.7734 109.023 59.0391 107.77 64.5977 107.77Z" fill="#FECD04"/>
<path d="M167.359 86.7812C169.852 85.9414 171.664 83.5781 171.664 80.8086C171.664 77.3398 168.824 74.5 165.355 74.5H151.797C157.668 77.6055 162.941 81.7617 167.359 86.7812Z" fill="#FECD04"/>
<path d="M28.1758 144.188C28.1758 137.949 29.7539 132.078 32.5273 126.941L22.7812 136.688C20.3281 139.141 20.3281 143.156 22.7812 145.609C24.2812 147.109 26.3633 147.688 28.3203 147.352C28.2266 146.305 28.1758 145.25 28.1758 144.188Z" fill="#FECD04"/>
<path d="M226.648 136.039C226.648 115.781 210.223 99.3555 189.965 99.3555C182.496 99.3555 175.551 101.594 169.758 105.43C162.703 88.168 145.746 76 125.949 76C101.121 76 80.7656 95.125 78.7969 119.441C74.6133 117.035 69.7695 115.652 64.5977 115.652C48.8359 115.652 36.0625 128.43 36.0625 144.188C36.0625 157.191 44.7617 168.156 56.6602 171.594C57.6797 172.305 58.9102 172.723 60.2422 172.723H192.707C193.379 172.723 194.023 172.613 194.633 172.414C212.688 170.121 226.648 154.715 226.648 136.039Z" fill="#EFF1F5"/>
<path d="M67.3906 204.859C65.9609 203.43 65.9609 201.086 67.3906 199.656L79.6562 187.391C81.0859 185.957 83.4297 185.957 84.8594 187.391C86.2891 188.82 86.2891 191.164 84.8594 192.594L72.5937 204.859C71.1641 206.289 68.8203 206.289 67.3906 204.859Z" fill="#189ACA"/>
<path d="M100.508 204.859C99.0742 203.43 99.0742 201.086 100.508 199.656L112.773 187.391C114.203 185.957 116.547 185.957 117.977 187.391C119.406 188.82 119.406 191.164 117.977 192.594L105.711 204.859C104.277 206.289 101.937 206.289 100.508 204.859Z" fill="#189ACA"/>
<path d="M133.621 204.859C132.191 203.43 132.191 201.086 133.621 199.656L145.891 187.391C147.32 185.957 149.66 185.957 151.094 187.391C152.523 188.82 152.523 191.164 151.094 192.594L138.828 204.859C137.395 206.289 135.055 206.289 133.621 204.859Z" fill="#189ACA"/>
<path d="M166.738 204.859C165.309 203.43 165.309 201.086 166.738 199.656L179.004 187.391C180.438 185.957 182.777 185.957 184.211 187.391C185.641 188.82 185.641 191.164 184.211 192.594L171.941 204.859C170.512 206.289 168.172 206.289 166.738 204.859Z" fill="#189ACA"/>
<path d="M40.3203 231.844C38.8867 230.41 38.8867 228.07 40.3203 226.641L52.5859 214.371C54.0156 212.941 56.3594 212.941 57.7891 214.371C59.2188 215.805 59.2188 218.145 57.7891 219.578L45.5234 231.844C44.0937 233.273 41.75 233.273 40.3203 231.844Z" fill="#189ACA"/>
<path d="M73.4375 231.844C72.0039 230.41 72.0039 228.07 73.4375 226.641L85.6992 214.371C87.1328 212.941 89.4727 212.941 90.9062 214.371C92.3359 215.805 92.3359 218.145 90.9062 219.578L78.6406 231.844C77.207 233.273 74.8672 233.273 73.4375 231.844Z" fill="#189ACA"/>
<path d="M106.551 231.844C105.121 230.41 105.121 228.07 106.551 226.641L118.816 214.371C120.25 212.941 122.59 212.941 124.02 214.371C125.453 215.805 125.453 218.145 124.02 219.578L111.754 231.844C110.324 233.273 107.984 233.273 106.551 231.844Z" fill="#189ACA"/>
<path d="M139.668 231.844C138.238 230.41 138.238 228.07 139.668 226.641L151.934 214.371C153.363 212.941 155.707 212.941 157.137 214.371C158.566 215.805 158.566 218.145 157.137 219.578L144.871 231.844C143.441 233.273 141.098 233.273 139.668 231.844Z" fill="#189ACA"/>
</svg>
