<svg width="227" height="173" viewBox="0 0 227 173" fill="none" xmlns="http://www.w3.org/2000/svg">
<path d="M86.4258 0C82.957 0 80.1172 2.83984 80.1172 6.30859V26.2852C80.1172 29.7539 82.957 32.5938 86.4258 32.5938C89.8945 32.5938 92.7344 29.7539 92.7344 26.2852V6.30859C92.7344 2.83984 89.8945 0 86.4258 0Z" fill="#FECD04"/>
<path d="M24.4414 26.0234C21.9883 28.4766 21.9883 32.4883 24.4414 34.9414L38.5664 49.0664C41.0195 51.5195 45.0312 51.5195 47.4844 49.0664C49.9414 46.6133 49.9414 42.6016 47.4844 40.1445L33.3633 26.0234C30.9102 23.5703 26.8945 23.5703 24.4414 26.0234Z" fill="#FECD04"/>
<path d="M146.051 23.7773C143.598 21.3242 139.582 21.3242 137.129 23.7773L123.008 37.9023C120.555 40.3555 120.555 44.3672 123.008 46.8242C125.461 49.2773 129.473 49.2773 131.926 46.8242L146.051 32.6992C148.504 30.2461 148.504 26.2305 146.051 23.7773Z" fill="#FECD04"/>
<path d="M32.5898 84.8945C32.5898 81.4258 29.75 78.5859 26.2812 78.5859H6.30469C2.83594 78.5859 0 81.4258 0 84.8945C0 88.3633 2.83594 91.2031 6.30469 91.2031H26.2812C29.75 91.2031 32.5898 88.3633 32.5898 84.8945Z" fill="#FECD04"/>
<path d="M64.5938 107.77C67.3359 107.77 70.0586 108.082 72.7148 108.688C75.4102 98.8438 80.8125 89.8906 88.4414 82.8203C98.668 73.3398 111.988 68.1172 125.945 68.1172C126.977 68.1172 128 68.1523 129.02 68.2109C122.352 51.2031 105.797 39.1641 86.4258 39.1641C61.168 39.1641 40.6953 59.6367 40.6953 84.8945C40.6953 94.7109 43.7891 103.809 49.0547 111.258C53.7734 109.023 59.0391 107.77 64.5938 107.77Z" fill="#FECD04"/>
<path d="M167.355 86.7852C169.852 85.9414 171.66 83.5781 171.66 80.8125C171.66 77.3438 168.824 74.5039 165.355 74.5039H151.793C157.664 77.6055 162.941 81.7617 167.355 86.7852Z" fill="#FECD04"/>
<path d="M28.1719 144.191C28.1719 137.953 29.75 132.078 32.5273 126.941L22.7773 136.691C20.3242 139.145 20.3242 143.156 22.7773 145.609C24.2773 147.113 26.3633 147.691 28.3164 147.355C28.2266 146.309 28.1719 145.254 28.1719 144.191Z" fill="#FECD04"/>
<path d="M226.645 136.043C226.645 115.781 210.219 99.3594 189.961 99.3594C182.492 99.3594 175.551 101.598 169.754 105.43C162.699 88.168 145.746 76.0039 125.945 76.0039C101.121 76.0039 80.7656 95.125 78.793 119.441C74.6133 117.039 69.7656 115.656 64.5938 115.656C48.832 115.656 36.0586 128.43 36.0586 144.191C36.0586 157.195 44.7617 168.156 56.6562 171.598C57.6758 172.305 58.9102 172.727 60.2383 172.727H192.703C193.375 172.727 194.023 172.613 194.633 172.418C212.684 170.121 226.645 154.719 226.645 136.043Z" fill="#EFF1F5"/>
</svg>
