<svg width="191" height="155" viewBox="0 0 191 155" fill="none" xmlns="http://www.w3.org/2000/svg">
<path d="M190.586 60.0391C190.586 39.7773 174.164 23.3555 153.906 23.3555C146.438 23.3555 139.492 25.5938 133.695 29.4258C126.645 12.1641 109.688 0 89.8867 0C65.0625 0 44.707 19.1211 42.7383 43.4414C38.5547 41.0352 33.707 39.6523 28.5352 39.6523C12.7773 39.6523 0 52.4258 0 68.1875C0 81.1914 8.70312 92.1562 20.5977 95.5938C21.6172 96.3008 22.8516 96.7227 24.1797 96.7227H156.645C157.316 96.7227 157.965 96.6133 158.574 96.4141C176.625 94.1172 190.586 78.7148 190.586 60.0391Z" fill="#CCCDCE"/>
<path d="M31.9492 126.457C30.5156 125.027 30.5156 122.684 31.9492 121.254L44.2148 108.988C45.6445 107.559 47.9883 107.559 49.418 108.988C50.8477 110.418 50.8477 112.762 49.418 114.191L37.1523 126.457C35.7188 127.891 33.3789 127.891 31.9492 126.457Z" fill="#189ACA"/>
<path d="M65.0664 126.457C63.6328 125.027 63.6328 122.684 65.0664 121.254L77.3281 108.988C78.7617 107.559 81.1016 107.559 82.5352 108.988C83.9648 110.418 83.9648 112.762 82.5352 114.191L70.2695 126.457C68.8359 127.891 66.4961 127.891 65.0664 126.457Z" fill="#189ACA"/>
<path d="M98.1797 126.457C96.75 125.027 96.75 122.684 98.1797 121.254L110.445 108.988C111.879 107.559 114.219 107.559 115.648 108.988C117.082 110.418 117.082 112.762 115.648 114.191L103.383 126.457C101.953 127.891 99.6133 127.891 98.1797 126.457Z" fill="#189ACA"/>
<path d="M131.297 126.457C129.867 125.027 129.867 122.684 131.297 121.254L143.562 108.988C144.992 107.559 147.336 107.559 148.766 108.988C150.199 110.418 150.199 112.762 148.766 114.191L136.5 126.457C135.07 127.891 132.727 127.891 131.297 126.457Z" fill="#189ACA"/>
<path d="M4.87891 153.441C3.44531 152.008 3.44531 149.668 4.87891 148.238L17.1445 135.973C18.5742 134.543 20.9141 134.543 22.3477 135.973C23.7773 137.402 23.7773 139.746 22.3477 141.176L10.082 153.441C8.64844 154.871 6.30859 154.871 4.87891 153.441Z" fill="#189ACA"/>
<path d="M37.9922 153.441C36.5625 152.008 36.5625 149.668 37.9922 148.238L50.2578 135.973C51.6914 134.543 54.0312 134.543 55.4609 135.973C56.8945 137.402 56.8945 139.746 55.4609 141.176L43.1953 153.441C41.7656 154.871 39.4258 154.871 37.9922 153.441Z" fill="#189ACA"/>
<path d="M71.1094 153.441C69.6797 152.008 69.6797 149.668 71.1094 148.238L83.375 135.973C84.8086 134.543 87.1484 134.543 88.5781 135.973C90.0078 137.402 90.0078 139.746 88.5781 141.176L76.3125 153.441C74.8828 154.871 72.5391 154.871 71.1094 153.441Z" fill="#189ACA"/>
<path d="M104.227 153.441C102.793 152.008 102.793 149.668 104.227 148.238L116.492 135.973C117.922 134.543 120.266 134.543 121.695 135.973C123.125 137.402 123.125 139.746 121.695 141.176L109.43 153.441C107.996 154.871 105.656 154.871 104.227 153.441Z" fill="#189ACA"/>
</svg>
