<svg width="191" height="142" viewBox="0 0 191 142" fill="none" xmlns="http://www.w3.org/2000/svg">
<path d="M190.586 60.0352C190.586 39.7773 174.164 23.3555 153.902 23.3555C146.434 23.3555 139.492 25.5938 133.695 29.4258C126.641 12.1641 109.688 0 89.8867 0C65.0625 0 44.707 19.1211 42.7383 43.4375C38.5547 41.0312 33.707 39.6484 28.5352 39.6484C12.7734 39.6484 0 52.4258 0 68.1836C0 81.1875 8.70312 92.1523 20.5977 95.5938C21.6172 96.3008 22.8516 96.7188 24.1797 96.7188H156.645C157.316 96.7188 157.965 96.6094 158.574 96.4141C176.625 94.1172 190.586 78.7148 190.586 60.0352Z" fill="#CCCDCE"/>
<path d="M42.7852 114.258C40.7617 114.258 39.1055 112.602 39.1055 110.578V109.047C39.1055 107.023 40.7617 105.367 42.7852 105.367C44.8086 105.367 46.4648 107.023 46.4648 109.047V110.578C46.4648 112.602 44.8086 114.258 42.7852 114.258Z" fill="#189ACA"/>
<path d="M75.8984 114.258C73.8789 114.258 72.2227 112.602 72.2227 110.578V109.047C72.2227 107.023 73.8789 105.367 75.8984 105.367C77.9258 105.367 79.582 107.023 79.582 109.047V110.578C79.582 112.602 77.9258 114.258 75.8984 114.258Z" fill="#189ACA"/>
<path d="M109.016 114.258C106.992 114.258 105.336 112.602 105.336 110.578V109.047C105.336 107.023 106.992 105.367 109.016 105.367C111.039 105.367 112.695 107.023 112.695 109.047V110.578C112.695 112.602 111.039 114.258 109.016 114.258Z" fill="#189ACA"/>
<path d="M142.133 114.258C140.109 114.258 138.453 112.602 138.453 110.578V109.047C138.453 107.023 140.109 105.367 142.133 105.367C144.156 105.367 145.812 107.023 145.812 109.047V110.578C145.812 112.602 144.156 114.258 142.133 114.258Z" fill="#189ACA"/>
<path d="M43.1289 128.672C41.1055 128.672 39.4492 127.016 39.4492 124.992V123.465C39.4492 121.441 41.1055 119.785 43.1289 119.785C45.1562 119.785 46.8086 121.441 46.8086 123.465V124.992C46.8086 127.016 45.1562 128.672 43.1289 128.672Z" fill="#189ACA"/>
<path d="M76.2461 128.672C74.2227 128.672 72.5664 127.016 72.5664 124.992V123.465C72.5664 121.441 74.2227 119.785 76.2461 119.785C78.2695 119.785 79.9258 121.441 79.9258 123.465V124.992C79.9258 127.016 78.2695 128.672 76.2461 128.672Z" fill="#189ACA"/>
<path d="M109.363 128.672C107.34 128.672 105.684 127.016 105.684 124.992V123.465C105.684 121.441 107.34 119.785 109.363 119.785C111.387 119.785 113.043 121.441 113.043 123.465V124.992C113.043 127.016 111.387 128.672 109.363 128.672Z" fill="#189ACA"/>
<path d="M142.48 128.672C140.457 128.672 138.801 127.016 138.801 124.992V123.465C138.801 121.441 140.457 119.785 142.48 119.785C144.504 119.785 146.16 121.441 146.16 123.465V124.992C146.16 127.016 144.504 128.672 142.48 128.672Z" fill="#189ACA"/>
<path d="M43.1289 141.703C41.1055 141.703 39.4492 140.047 39.4492 138.023V136.492C39.4492 134.469 41.1055 132.812 43.1289 132.812C45.1562 132.812 46.8086 134.469 46.8086 136.492V138.023C46.8086 140.047 45.1562 141.703 43.1289 141.703Z" fill="#189ACA"/>
<path d="M76.2461 141.703C74.2227 141.703 72.5664 140.047 72.5664 138.023V136.492C72.5664 134.469 74.2227 132.812 76.2461 132.812C78.2695 132.812 79.9258 134.469 79.9258 136.492V138.023C79.9258 140.047 78.2695 141.703 76.2461 141.703Z" fill="#189ACA"/>
<path d="M109.363 141.703C107.34 141.703 105.684 140.047 105.684 138.023V136.492C105.684 134.469 107.34 132.812 109.363 132.812C111.387 132.812 113.043 134.469 113.043 136.492V138.023C113.043 140.047 111.387 141.703 109.363 141.703Z" fill="#189ACA"/>
<path d="M142.48 141.703C140.457 141.703 138.801 140.047 138.801 138.023V136.492C138.801 134.469 140.457 132.812 142.48 132.812C144.504 132.812 146.16 134.469 146.16 136.492V138.023C146.16 140.047 144.504 141.703 142.48 141.703Z" fill="#189ACA"/>
</svg>
