<svg width="238" height="117" viewBox="0 0 238 117" fill="none" xmlns="http://www.w3.org/2000/svg">
<path d="M200.684 23.3555C193.219 23.3555 186.273 25.5938 180.477 29.4297C173.426 12.168 156.469 0 136.668 0C123.754 0 112.059 5.18359 103.52 13.5742C117.516 17.1133 129.602 26.0078 137.129 38.5039C142.422 36.3516 148.102 35.2344 153.902 35.2344C178.477 35.2344 198.469 55.2266 198.469 79.8008C198.469 85.7656 197.273 91.4805 195.109 96.7227H203.426C204.098 96.7227 204.746 96.6133 205.355 96.4141C223.406 94.1211 237.367 78.7148 237.367 60.0391C237.367 39.7812 220.945 23.3555 200.684 23.3555Z" fill="#CCCDCE"/>
<path d="M190.586 79.8008C190.586 59.543 174.16 43.1172 153.902 43.1172C146.434 43.1172 139.488 45.3555 133.695 49.1914C126.641 31.9258 109.684 19.7617 89.8867 19.7617C65.0625 19.7617 44.7031 38.8828 42.7344 63.2031C38.5508 60.7969 33.707 59.4141 28.5352 59.4141C12.7734 59.4141 0 72.1875 0 87.9492C0 100.953 8.69922 111.918 20.5977 115.355C21.6172 116.066 22.8516 116.484 24.1797 116.484H156.645C157.316 116.484 157.965 116.375 158.57 116.176C176.625 113.883 190.586 98.4766 190.586 79.8008Z" fill="#EFF1F5"/>
</svg>
