<svg width="179" height="178" viewBox="0 0 179 178" fill="none" xmlns="http://www.w3.org/2000/svg">
<path d="M128.523 127.837C126.07 130.332 126.07 134.413 128.523 136.908L142.648 151.275C145.102 153.771 149.117 153.771 151.57 151.275C154.023 148.78 154.023 144.696 151.57 142.2L137.445 127.837C134.992 125.342 130.977 125.342 128.523 127.837Z" fill="#FECD04"/>
<path d="M86.4258 144.628C82.957 144.628 80.1211 147.517 80.1211 151.045V171.364C80.1211 174.893 82.957 177.781 86.4258 177.781C89.8984 177.781 92.7344 174.893 92.7344 171.364V151.045C92.7344 147.517 89.8984 144.628 86.4258 144.628Z" fill="#FECD04"/>
<path d="M86.4258 0C82.957 0 80.1211 2.88859 80.1211 6.41688V26.7363C80.1211 30.2646 82.957 33.1532 86.4258 33.1532C89.8984 33.1532 92.7344 30.2646 92.7344 26.7363V6.41688C92.7344 2.88859 89.8984 0 86.4258 0Z" fill="#FECD04"/>
<path d="M24.4414 26.4661C21.9883 28.9614 21.9883 33.0459 24.4414 35.5411L38.5664 49.9086C41.0195 52.4038 45.0352 52.4038 47.4883 49.9086C49.9414 47.4134 49.9414 43.3288 47.4883 40.8336L33.3633 26.4661C30.9102 23.9709 26.8945 23.9709 24.4414 26.4661Z" fill="#FECD04"/>
<path d="M149.73 21.432C147.277 18.9367 143.262 18.9367 140.809 21.432L126.684 35.7994C124.23 38.2946 124.23 42.3752 126.684 44.8705C129.137 47.3657 133.152 47.3657 135.605 44.8705L149.73 30.503C152.184 28.0118 152.184 23.9272 149.73 21.432Z" fill="#FECD04"/>
<path d="M45.9492 126.005C43.4961 123.51 39.4805 123.51 37.0273 126.005L22.9062 140.373C20.4531 142.868 20.4531 146.952 22.9062 149.448C25.3594 151.943 29.3711 151.943 31.8242 149.448L45.9492 135.08C48.4023 132.585 48.4023 128.5 45.9492 126.005Z" fill="#FECD04"/>
<path d="M32.5898 86.3517C32.5898 82.8234 29.75 79.9348 26.2812 79.9348H6.30859C2.83984 79.9348 0 82.8234 0 86.3517C0 89.88 2.83984 92.7686 6.30859 92.7686H26.2812C29.75 92.7686 32.5898 89.88 32.5898 86.3517Z" fill="#FECD04"/>
<path d="M178.023 82.0287C178.023 78.5005 175.187 75.6119 171.715 75.6119H151.742C148.273 75.6119 145.434 78.5005 145.434 82.0287C145.434 85.557 148.273 88.4416 151.742 88.4416H171.715C175.187 88.4416 178.023 85.557 178.023 82.0287Z" fill="#FECD04"/>
<path d="M138.207 88.2747C138.207 115.516 116.496 137.599 89.7148 137.599C62.9336 137.599 41.2227 115.516 41.2227 88.2747C41.2227 61.0338 62.9336 38.9502 89.7148 38.9502C116.496 38.9502 138.207 61.0338 138.207 88.2747Z" fill="#FECD04"/>
</svg>
