<svg width="191" height="181" viewBox="0 0 191 181" fill="none" xmlns="http://www.w3.org/2000/svg">
<path d="M190.586 60.0352C190.586 39.7773 174.164 23.3555 153.906 23.3555C146.438 23.3555 139.492 25.5898 133.695 29.4258C126.645 12.1641 109.688 0 89.8906 0C65.0625 0 44.707 19.1211 42.7383 43.4375C38.5547 41.0312 33.707 39.6484 28.5352 39.6484C12.7773 39.6484 0 52.4258 0 68.1836C0 81.1875 8.70313 92.1523 20.6016 95.5938C21.6211 96.3008 22.8555 96.7188 24.1836 96.7188H156.648C157.32 96.7188 157.965 96.6094 158.574 96.4141C176.629 94.1172 190.586 78.7109 190.586 60.0352Z" fill="#CCCDCE"/>
<path d="M31.8438 109.129L14.1914 142.82H31.8438L16.207 180.094L42.6641 138.141L29.7266 138.57L48.5469 109.129H31.8438Z" fill="#FECD04"/>
<path d="M88.2656 109.129L70.6133 142.82H88.2656L72.6289 180.094L99.0898 138.141L86.1523 138.57L104.969 109.129H88.2656Z" fill="#FECD04"/>
<path d="M143.012 109.129L125.359 142.82H143.012L127.375 180.094L153.836 138.141L140.898 138.57L159.715 109.129H143.012Z" fill="#FECD04"/>
</svg>
